<?xml version="1.0" encoding="UTF-8" standalone="no"?>
<!DOCTYPE svg PUBLIC "-//W3C//DTD SVG 1.1//EN"
 "http://www.w3.org/Graphics/SVG/1.1/DTD/svg11.dtd">
<!-- Generated by graphviz version 2.50.0 (0)
 -->
<!-- Pages: 1 -->
<svg width="239pt" height="836pt"
 viewBox="0.00 0.00 239.38 836.00" xmlns="http://www.w3.org/2000/svg" xmlns:xlink="http://www.w3.org/1999/xlink">
<g id="graph0" class="graph" transform="scale(1 1) rotate(0) translate(4 832)">
<polygon fill="white" stroke="transparent" points="-4,4 -4,-832 235.38,-832 235.38,4 -4,4"/>
<!-- Poznań -->
<g id="node1" class="node">
<title>Poznań</title>
<ellipse fill="none" stroke="black" cx="115.69" cy="-810" rx="44.39" ry="18"/>
<text text-anchor="middle" x="115.69" y="-806.3" font-family="Times,serif" font-size="14.00">Poznań</text>
</g>
<!-- Warszawa -->
<g id="node2" class="node">
<title>Warszawa</title>
<ellipse fill="none" stroke="black" cx="115.69" cy="-738" rx="57.69" ry="18"/>
<text text-anchor="middle" x="115.69" y="-734.3" font-family="Times,serif" font-size="14.00">Warszawa</text>
</g>
<!-- Poznań&#45;&gt;Warszawa -->
<g id="edge1" class="edge">
<title>Poznań&#45;&gt;Warszawa</title>
<path fill="none" stroke="black" d="M115.69,-791.7C115.69,-783.98 115.69,-774.71 115.69,-766.11"/>
<polygon fill="black" stroke="black" points="119.19,-766.1 115.69,-756.1 112.19,-766.1 119.19,-766.1"/>
</g>
<!-- Bydgoszcz -->
<g id="node3" class="node">
<title>Bydgoszcz</title>
<ellipse fill="none" stroke="black" cx="115.69" cy="-666" rx="59.59" ry="18"/>
<text text-anchor="middle" x="115.69" y="-662.3" font-family="Times,serif" font-size="14.00">Bydgoszcz</text>
</g>
<!-- Warszawa&#45;&gt;Bydgoszcz -->
<g id="edge2" class="edge">
<title>Warszawa&#45;&gt;Bydgoszcz</title>
<path fill="none" stroke="black" d="M115.69,-719.7C115.69,-711.98 115.69,-702.71 115.69,-694.11"/>
<polygon fill="black" stroke="black" points="119.19,-694.1 115.69,-684.1 112.19,-694.1 119.19,-694.1"/>
</g>
<!-- Gdańsk, Łódź -->
<g id="node4" class="node">
<title>Gdańsk, Łódź</title>
<ellipse fill="none" stroke="black" cx="115.69" cy="-594" rx="73.39" ry="18"/>
<text text-anchor="middle" x="115.69" y="-590.3" font-family="Times,serif" font-size="14.00">Gdańsk, Łódź</text>
</g>
<!-- Bydgoszcz&#45;&gt;Gdańsk, Łódź -->
<g id="edge3" class="edge">
<title>Bydgoszcz&#45;&gt;Gdańsk, Łódź</title>
<path fill="none" stroke="black" d="M115.69,-647.7C115.69,-639.98 115.69,-630.71 115.69,-622.11"/>
<polygon fill="black" stroke="black" points="119.19,-622.1 115.69,-612.1 112.19,-622.1 119.19,-622.1"/>
</g>
<!-- Zielona Góra, Wrocław -->
<g id="node5" class="node">
<title>Zielona Góra, Wrocław</title>
<ellipse fill="none" stroke="black" cx="115.69" cy="-522" rx="115.88" ry="18"/>
<text text-anchor="middle" x="115.69" y="-518.3" font-family="Times,serif" font-size="14.00">Zielona Góra, Wrocław</text>
</g>
<!-- Gdańsk, Łódź&#45;&gt;Zielona Góra, Wrocław -->
<g id="edge4" class="edge">
<title>Gdańsk, Łódź&#45;&gt;Zielona Góra, Wrocław</title>
<path fill="none" stroke="black" d="M115.69,-575.7C115.69,-567.98 115.69,-558.71 115.69,-550.11"/>
<polygon fill="black" stroke="black" points="119.19,-550.1 115.69,-540.1 112.19,-550.1 119.19,-550.1"/>
</g>
<!-- Białystok -->
<g id="node6" class="node">
<title>Białystok</title>
<ellipse fill="none" stroke="black" cx="115.69" cy="-450" rx="53.89" ry="18"/>
<text text-anchor="middle" x="115.69" y="-446.3" font-family="Times,serif" font-size="14.00">Białystok</text>
</g>
<!-- Zielona Góra, Wrocław&#45;&gt;Białystok -->
<g id="edge5" class="edge">
<title>Zielona Góra, Wrocław&#45;&gt;Białystok</title>
<path fill="none" stroke="black" d="M115.69,-503.7C115.69,-495.98 115.69,-486.71 115.69,-478.11"/>
<polygon fill="black" stroke="black" points="119.19,-478.1 115.69,-468.1 112.19,-478.1 119.19,-478.1"/>
</g>
<!-- Kraków -->
<g id="node7" class="node">
<title>Kraków</title>
<ellipse fill="none" stroke="black" cx="115.69" cy="-378" rx="46.29" ry="18"/>
<text text-anchor="middle" x="115.69" y="-374.3" font-family="Times,serif" font-size="14.00">Kraków</text>
</g>
<!-- Białystok&#45;&gt;Kraków -->
<g id="edge6" class="edge">
<title>Białystok&#45;&gt;Kraków</title>
<path fill="none" stroke="black" d="M115.69,-431.7C115.69,-423.98 115.69,-414.71 115.69,-406.11"/>
<polygon fill="black" stroke="black" points="119.19,-406.1 115.69,-396.1 112.19,-406.1 119.19,-406.1"/>
</g>
<!-- Opole -->
<g id="node8" class="node">
<title>Opole</title>
<ellipse fill="none" stroke="black" cx="115.69" cy="-306" rx="37.89" ry="18"/>
<text text-anchor="middle" x="115.69" y="-302.3" font-family="Times,serif" font-size="14.00">Opole</text>
</g>
<!-- Kraków&#45;&gt;Opole -->
<g id="edge7" class="edge">
<title>Kraków&#45;&gt;Opole</title>
<path fill="none" stroke="black" d="M115.69,-359.7C115.69,-351.98 115.69,-342.71 115.69,-334.11"/>
<polygon fill="black" stroke="black" points="119.19,-334.1 115.69,-324.1 112.19,-334.1 119.19,-334.1"/>
</g>
<!-- Lublin -->
<g id="node9" class="node">
<title>Lublin</title>
<ellipse fill="none" stroke="black" cx="115.69" cy="-234" rx="40.09" ry="18"/>
<text text-anchor="middle" x="115.69" y="-230.3" font-family="Times,serif" font-size="14.00">Lublin</text>
</g>
<!-- Opole&#45;&gt;Lublin -->
<g id="edge8" class="edge">
<title>Opole&#45;&gt;Lublin</title>
<path fill="none" stroke="black" d="M115.69,-287.7C115.69,-279.98 115.69,-270.71 115.69,-262.11"/>
<polygon fill="black" stroke="black" points="119.19,-262.1 115.69,-252.1 112.19,-262.1 119.19,-262.1"/>
</g>
<!-- Katowice -->
<g id="node10" class="node">
<title>Katowice</title>
<ellipse fill="none" stroke="black" cx="115.69" cy="-162" rx="53.09" ry="18"/>
<text text-anchor="middle" x="115.69" y="-158.3" font-family="Times,serif" font-size="14.00">Katowice</text>
</g>
<!-- Lublin&#45;&gt;Katowice -->
<g id="edge9" class="edge">
<title>Lublin&#45;&gt;Katowice</title>
<path fill="none" stroke="black" d="M115.69,-215.7C115.69,-207.98 115.69,-198.71 115.69,-190.11"/>
<polygon fill="black" stroke="black" points="119.19,-190.1 115.69,-180.1 112.19,-190.1 119.19,-190.1"/>
</g>
<!-- Rzeszów -->
<g id="node11" class="node">
<title>Rzeszów</title>
<ellipse fill="none" stroke="black" cx="115.69" cy="-90" rx="50.89" ry="18"/>
<text text-anchor="middle" x="115.69" y="-86.3" font-family="Times,serif" font-size="14.00">Rzeszów</text>
</g>
<!-- Katowice&#45;&gt;Rzeszów -->
<g id="edge10" class="edge">
<title>Katowice&#45;&gt;Rzeszów</title>
<path fill="none" stroke="black" d="M115.69,-143.7C115.69,-135.98 115.69,-126.71 115.69,-118.11"/>
<polygon fill="black" stroke="black" points="119.19,-118.1 115.69,-108.1 112.19,-118.1 119.19,-118.1"/>
</g>
<!-- Kielce -->
<g id="node12" class="node">
<title>Kielce</title>
<ellipse fill="none" stroke="black" cx="115.69" cy="-18" rx="38.99" ry="18"/>
<text text-anchor="middle" x="115.69" y="-14.3" font-family="Times,serif" font-size="14.00">Kielce</text>
</g>
<!-- Rzeszów&#45;&gt;Kielce -->
<g id="edge11" class="edge">
<title>Rzeszów&#45;&gt;Kielce</title>
<path fill="none" stroke="black" d="M115.69,-71.7C115.69,-63.98 115.69,-54.71 115.69,-46.11"/>
<polygon fill="black" stroke="black" points="119.19,-46.1 115.69,-36.1 112.19,-46.1 119.19,-46.1"/>
</g>
</g>
</svg>
