<?xml version="1.0" encoding="UTF-8" standalone="no"?>
<!DOCTYPE svg PUBLIC "-//W3C//DTD SVG 1.1//EN"
 "http://www.w3.org/Graphics/SVG/1.1/DTD/svg11.dtd">
<!-- Generated by graphviz version 9.0.0 (20230911.1827)
 -->
<!-- Pages: 1 -->
<svg width="341pt" height="404pt"
 viewBox="0.00 0.00 340.66 404.00" xmlns="http://www.w3.org/2000/svg" xmlns:xlink="http://www.w3.org/1999/xlink">
<g id="graph0" class="graph" transform="scale(1 1) rotate(0) translate(4 400)">
<polygon fill="white" stroke="none" points="-4,4 -4,-400 336.66,-400 336.66,4 -4,4"/>
<!-- Poznań, Warszawa -->
<g id="node1" class="node">
<title>Poznań, Warszawa</title>
<ellipse fill="none" stroke="black" cx="166.33" cy="-378" rx="81.5" ry="18"/>
<text text-anchor="middle" x="166.33" y="-372.57" font-family="Times New Roman,serif" font-size="14.00">Poznań, Warszawa</text>
</g>
<!-- Bydgoszcz, Łódź -->
<g id="node2" class="node">
<title>Bydgoszcz, Łódź</title>
<ellipse fill="none" stroke="black" cx="166.33" cy="-306" rx="77.01" ry="18"/>
<text text-anchor="middle" x="166.33" y="-300.57" font-family="Times New Roman,serif" font-size="14.00">Bydgoszcz, Łódź</text>
</g>
<!-- Poznań, Warszawa&#45;&gt;Bydgoszcz, Łódź -->
<g id="edge1" class="edge">
<title>Poznań, Warszawa&#45;&gt;Bydgoszcz, Łódź</title>
<path fill="none" stroke="black" d="M166.33,-359.7C166.33,-352.41 166.33,-343.73 166.33,-335.54"/>
<polygon fill="black" stroke="black" points="169.83,-335.62 166.33,-325.62 162.83,-335.62 169.83,-335.62"/>
</g>
<!-- Gdańsk, Wrocław, Zielona Góra, Kraków -->
<g id="node3" class="node">
<title>Gdańsk, Wrocław, Zielona Góra, Kraków</title>
<ellipse fill="none" stroke="black" cx="166.33" cy="-234" rx="166.33" ry="18"/>
<text text-anchor="middle" x="166.33" y="-228.57" font-family="Times New Roman,serif" font-size="14.00">Gdańsk, Wrocław, Zielona Góra, Kraków</text>
</g>
<!-- Bydgoszcz, Łódź&#45;&gt;Gdańsk, Wrocław, Zielona Góra, Kraków -->
<g id="edge2" class="edge">
<title>Bydgoszcz, Łódź&#45;&gt;Gdańsk, Wrocław, Zielona Góra, Kraków</title>
<path fill="none" stroke="black" d="M166.33,-287.7C166.33,-280.41 166.33,-271.73 166.33,-263.54"/>
<polygon fill="black" stroke="black" points="169.83,-263.62 166.33,-253.62 162.83,-263.62 169.83,-263.62"/>
</g>
<!-- Katowice, Białystok, Opole -->
<g id="node4" class="node">
<title>Katowice, Białystok, Opole</title>
<ellipse fill="none" stroke="black" cx="166.33" cy="-162" rx="112.94" ry="18"/>
<text text-anchor="middle" x="166.33" y="-156.57" font-family="Times New Roman,serif" font-size="14.00">Katowice, Białystok, Opole</text>
</g>
<!-- Gdańsk, Wrocław, Zielona Góra, Kraków&#45;&gt;Katowice, Białystok, Opole -->
<g id="edge3" class="edge">
<title>Gdańsk, Wrocław, Zielona Góra, Kraków&#45;&gt;Katowice, Białystok, Opole</title>
<path fill="none" stroke="black" d="M166.33,-215.7C166.33,-208.41 166.33,-199.73 166.33,-191.54"/>
<polygon fill="black" stroke="black" points="169.83,-191.62 166.33,-181.62 162.83,-191.62 169.83,-191.62"/>
</g>
<!-- Lublin, Rzeszów -->
<g id="node5" class="node">
<title>Lublin, Rzeszów</title>
<ellipse fill="none" stroke="black" cx="166.33" cy="-90" rx="73.02" ry="18"/>
<text text-anchor="middle" x="166.33" y="-84.58" font-family="Times New Roman,serif" font-size="14.00">Lublin, Rzeszów</text>
</g>
<!-- Katowice, Białystok, Opole&#45;&gt;Lublin, Rzeszów -->
<g id="edge4" class="edge">
<title>Katowice, Białystok, Opole&#45;&gt;Lublin, Rzeszów</title>
<path fill="none" stroke="black" d="M166.33,-143.7C166.33,-136.41 166.33,-127.73 166.33,-119.54"/>
<polygon fill="black" stroke="black" points="169.83,-119.62 166.33,-109.62 162.83,-119.62 169.83,-119.62"/>
</g>
<!-- Kielce -->
<g id="node6" class="node">
<title>Kielce</title>
<ellipse fill="none" stroke="black" cx="166.33" cy="-18" rx="33.6" ry="18"/>
<text text-anchor="middle" x="166.33" y="-12.57" font-family="Times New Roman,serif" font-size="14.00">Kielce</text>
</g>
<!-- Lublin, Rzeszów&#45;&gt;Kielce -->
<g id="edge5" class="edge">
<title>Lublin, Rzeszów&#45;&gt;Kielce</title>
<path fill="none" stroke="black" d="M166.33,-71.7C166.33,-64.41 166.33,-55.73 166.33,-47.54"/>
<polygon fill="black" stroke="black" points="169.83,-47.62 166.33,-37.62 162.83,-47.62 169.83,-47.62"/>
</g>
</g>
</svg>
