<?xml version="1.0" encoding="UTF-8" standalone="no"?>
<!DOCTYPE svg PUBLIC "-//W3C//DTD SVG 1.1//EN"
 "http://www.w3.org/Graphics/SVG/1.1/DTD/svg11.dtd">
<!-- Generated by graphviz version 10.0.1 (20240210.2158)
 -->
<!-- Pages: 1 -->
<svg width="126pt" height="980pt"
 viewBox="0.00 0.00 126.10 980.00" xmlns="http://www.w3.org/2000/svg" xmlns:xlink="http://www.w3.org/1999/xlink">
<g id="graph0" class="graph" transform="scale(1 1) rotate(0) translate(4 976)">
<polygon fill="white" stroke="none" points="-4,4 -4,-976 122.1,-976 122.1,4 -4,4"/>
<!-- Poznań -->
<g id="node1" class="node">
<title>Poznań</title>
<ellipse fill="none" stroke="black" cx="59.05" cy="-954" rx="38.09" ry="18"/>
<text text-anchor="middle" x="59.05" y="-948.58" font-family="Times New Roman,serif" font-size="14.00">Poznań</text>
</g>
<!-- Bydgoszcz -->
<g id="node2" class="node">
<title>Bydgoszcz</title>
<ellipse fill="none" stroke="black" cx="59.05" cy="-882" rx="52.06" ry="18"/>
<text text-anchor="middle" x="59.05" y="-876.58" font-family="Times New Roman,serif" font-size="14.00">Bydgoszcz</text>
</g>
<!-- Poznań&#45;&gt;Bydgoszcz -->
<g id="edge1" class="edge">
<title>Poznań&#45;&gt;Bydgoszcz</title>
<path fill="none" stroke="black" d="M59.05,-935.7C59.05,-928.41 59.05,-919.73 59.05,-911.54"/>
<polygon fill="black" stroke="black" points="62.55,-911.62 59.05,-901.62 55.55,-911.62 62.55,-911.62"/>
</g>
<!-- Zielona Góra -->
<g id="node3" class="node">
<title>Zielona Góra</title>
<ellipse fill="none" stroke="black" cx="59.05" cy="-810" rx="59.05" ry="18"/>
<text text-anchor="middle" x="59.05" y="-804.58" font-family="Times New Roman,serif" font-size="14.00">Zielona Góra</text>
</g>
<!-- Bydgoszcz&#45;&gt;Zielona Góra -->
<g id="edge2" class="edge">
<title>Bydgoszcz&#45;&gt;Zielona Góra</title>
<path fill="none" stroke="black" d="M59.05,-863.7C59.05,-856.41 59.05,-847.73 59.05,-839.54"/>
<polygon fill="black" stroke="black" points="62.55,-839.62 59.05,-829.62 55.55,-839.62 62.55,-839.62"/>
</g>
<!-- Warszawa -->
<g id="node4" class="node">
<title>Warszawa</title>
<ellipse fill="none" stroke="black" cx="59.05" cy="-738" rx="49.07" ry="18"/>
<text text-anchor="middle" x="59.05" y="-732.58" font-family="Times New Roman,serif" font-size="14.00">Warszawa</text>
</g>
<!-- Zielona Góra&#45;&gt;Warszawa -->
<g id="edge3" class="edge">
<title>Zielona Góra&#45;&gt;Warszawa</title>
<path fill="none" stroke="black" d="M59.05,-791.7C59.05,-784.41 59.05,-775.73 59.05,-767.54"/>
<polygon fill="black" stroke="black" points="62.55,-767.62 59.05,-757.62 55.55,-767.62 62.55,-767.62"/>
</g>
<!-- Wrocław -->
<g id="node5" class="node">
<title>Wrocław</title>
<ellipse fill="none" stroke="black" cx="59.05" cy="-666" rx="44.58" ry="18"/>
<text text-anchor="middle" x="59.05" y="-660.58" font-family="Times New Roman,serif" font-size="14.00">Wrocław</text>
</g>
<!-- Warszawa&#45;&gt;Wrocław -->
<g id="edge4" class="edge">
<title>Warszawa&#45;&gt;Wrocław</title>
<path fill="none" stroke="black" d="M59.05,-719.7C59.05,-712.41 59.05,-703.73 59.05,-695.54"/>
<polygon fill="black" stroke="black" points="62.55,-695.62 59.05,-685.62 55.55,-695.62 62.55,-695.62"/>
</g>
<!-- Gdańsk -->
<g id="node6" class="node">
<title>Gdańsk</title>
<ellipse fill="none" stroke="black" cx="59.05" cy="-594" rx="39.59" ry="18"/>
<text text-anchor="middle" x="59.05" y="-588.58" font-family="Times New Roman,serif" font-size="14.00">Gdańsk</text>
</g>
<!-- Wrocław&#45;&gt;Gdańsk -->
<g id="edge5" class="edge">
<title>Wrocław&#45;&gt;Gdańsk</title>
<path fill="none" stroke="black" d="M59.05,-647.7C59.05,-640.41 59.05,-631.73 59.05,-623.54"/>
<polygon fill="black" stroke="black" points="62.55,-623.62 59.05,-613.62 55.55,-623.62 62.55,-623.62"/>
</g>
<!-- Łódź -->
<g id="node7" class="node">
<title>Łódź</title>
<ellipse fill="none" stroke="black" cx="59.05" cy="-522" rx="30.61" ry="18"/>
<text text-anchor="middle" x="59.05" y="-516.58" font-family="Times New Roman,serif" font-size="14.00">Łódź</text>
</g>
<!-- Gdańsk&#45;&gt;Łódź -->
<g id="edge6" class="edge">
<title>Gdańsk&#45;&gt;Łódź</title>
<path fill="none" stroke="black" d="M59.05,-575.7C59.05,-568.41 59.05,-559.73 59.05,-551.54"/>
<polygon fill="black" stroke="black" points="62.55,-551.62 59.05,-541.62 55.55,-551.62 62.55,-551.62"/>
</g>
<!-- Lublin -->
<g id="node8" class="node">
<title>Lublin</title>
<ellipse fill="none" stroke="black" cx="59.05" cy="-450" rx="34.1" ry="18"/>
<text text-anchor="middle" x="59.05" y="-444.57" font-family="Times New Roman,serif" font-size="14.00">Lublin</text>
</g>
<!-- Łódź&#45;&gt;Lublin -->
<g id="edge7" class="edge">
<title>Łódź&#45;&gt;Lublin</title>
<path fill="none" stroke="black" d="M59.05,-503.7C59.05,-496.41 59.05,-487.73 59.05,-479.54"/>
<polygon fill="black" stroke="black" points="62.55,-479.62 59.05,-469.62 55.55,-479.62 62.55,-479.62"/>
</g>
<!-- Białystok -->
<g id="node9" class="node">
<title>Białystok</title>
<ellipse fill="none" stroke="black" cx="59.05" cy="-378" rx="45.08" ry="18"/>
<text text-anchor="middle" x="59.05" y="-372.57" font-family="Times New Roman,serif" font-size="14.00">Białystok</text>
</g>
<!-- Lublin&#45;&gt;Białystok -->
<g id="edge8" class="edge">
<title>Lublin&#45;&gt;Białystok</title>
<path fill="none" stroke="black" d="M59.05,-431.7C59.05,-424.41 59.05,-415.73 59.05,-407.54"/>
<polygon fill="black" stroke="black" points="62.55,-407.62 59.05,-397.62 55.55,-407.62 62.55,-407.62"/>
</g>
<!-- Opole -->
<g id="node10" class="node">
<title>Opole</title>
<ellipse fill="none" stroke="black" cx="59.05" cy="-306" rx="33.6" ry="18"/>
<text text-anchor="middle" x="59.05" y="-300.57" font-family="Times New Roman,serif" font-size="14.00">Opole</text>
</g>
<!-- Białystok&#45;&gt;Opole -->
<g id="edge9" class="edge">
<title>Białystok&#45;&gt;Opole</title>
<path fill="none" stroke="black" d="M59.05,-359.7C59.05,-352.41 59.05,-343.73 59.05,-335.54"/>
<polygon fill="black" stroke="black" points="62.55,-335.62 59.05,-325.62 55.55,-335.62 62.55,-335.62"/>
</g>
<!-- Kraków -->
<g id="node11" class="node">
<title>Kraków</title>
<ellipse fill="none" stroke="black" cx="59.05" cy="-234" rx="40.09" ry="18"/>
<text text-anchor="middle" x="59.05" y="-228.57" font-family="Times New Roman,serif" font-size="14.00">Kraków</text>
</g>
<!-- Opole&#45;&gt;Kraków -->
<g id="edge10" class="edge">
<title>Opole&#45;&gt;Kraków</title>
<path fill="none" stroke="black" d="M59.05,-287.7C59.05,-280.41 59.05,-271.73 59.05,-263.54"/>
<polygon fill="black" stroke="black" points="62.55,-263.62 59.05,-253.62 55.55,-263.62 62.55,-263.62"/>
</g>
<!-- Katowice -->
<g id="node12" class="node">
<title>Katowice</title>
<ellipse fill="none" stroke="black" cx="59.05" cy="-162" rx="45.57" ry="18"/>
<text text-anchor="middle" x="59.05" y="-156.57" font-family="Times New Roman,serif" font-size="14.00">Katowice</text>
</g>
<!-- Kraków&#45;&gt;Katowice -->
<g id="edge11" class="edge">
<title>Kraków&#45;&gt;Katowice</title>
<path fill="none" stroke="black" d="M59.05,-215.7C59.05,-208.41 59.05,-199.73 59.05,-191.54"/>
<polygon fill="black" stroke="black" points="62.55,-191.62 59.05,-181.62 55.55,-191.62 62.55,-191.62"/>
</g>
<!-- Kielce -->
<g id="node13" class="node">
<title>Kielce</title>
<ellipse fill="none" stroke="black" cx="59.05" cy="-90" rx="33.6" ry="18"/>
<text text-anchor="middle" x="59.05" y="-84.58" font-family="Times New Roman,serif" font-size="14.00">Kielce</text>
</g>
<!-- Katowice&#45;&gt;Kielce -->
<g id="edge12" class="edge">
<title>Katowice&#45;&gt;Kielce</title>
<path fill="none" stroke="black" d="M59.05,-143.7C59.05,-136.41 59.05,-127.73 59.05,-119.54"/>
<polygon fill="black" stroke="black" points="62.55,-119.62 59.05,-109.62 55.55,-119.62 62.55,-119.62"/>
</g>
<!-- Rzeszów -->
<g id="node14" class="node">
<title>Rzeszów</title>
<ellipse fill="none" stroke="black" cx="59.05" cy="-18" rx="44.58" ry="18"/>
<text text-anchor="middle" x="59.05" y="-12.57" font-family="Times New Roman,serif" font-size="14.00">Rzeszów</text>
</g>
<!-- Kielce&#45;&gt;Rzeszów -->
<g id="edge13" class="edge">
<title>Kielce&#45;&gt;Rzeszów</title>
<path fill="none" stroke="black" d="M59.05,-71.7C59.05,-64.41 59.05,-55.73 59.05,-47.54"/>
<polygon fill="black" stroke="black" points="62.55,-47.62 59.05,-37.62 55.55,-47.62 62.55,-47.62"/>
</g>
</g>
</svg>
