<?xml version="1.0" encoding="UTF-8" standalone="no"?>
<!DOCTYPE svg PUBLIC "-//W3C//DTD SVG 1.1//EN"
 "http://www.w3.org/Graphics/SVG/1.1/DTD/svg11.dtd">
<!-- Generated by graphviz version 2.50.0 (0)
 -->
<!-- Pages: 1 -->
<svg width="297pt" height="764pt"
 viewBox="0.00 0.00 296.57 764.00" xmlns="http://www.w3.org/2000/svg" xmlns:xlink="http://www.w3.org/1999/xlink">
<g id="graph0" class="graph" transform="scale(1 1) rotate(0) translate(4 760)">
<polygon fill="white" stroke="transparent" points="-4,4 -4,-760 292.57,-760 292.57,4 -4,4"/>
<!-- Warszawa -->
<g id="node1" class="node">
<title>Warszawa</title>
<ellipse fill="none" stroke="black" cx="144.29" cy="-738" rx="57.69" ry="18"/>
<text text-anchor="middle" x="144.29" y="-734.3" font-family="Times,serif" font-size="14.00">Warszawa</text>
</g>
<!-- Poznań -->
<g id="node2" class="node">
<title>Poznań</title>
<ellipse fill="none" stroke="black" cx="144.29" cy="-666" rx="44.39" ry="18"/>
<text text-anchor="middle" x="144.29" y="-662.3" font-family="Times,serif" font-size="14.00">Poznań</text>
</g>
<!-- Warszawa&#45;&gt;Poznań -->
<g id="edge1" class="edge">
<title>Warszawa&#45;&gt;Poznań</title>
<path fill="none" stroke="black" d="M144.29,-719.7C144.29,-711.98 144.29,-702.71 144.29,-694.11"/>
<polygon fill="black" stroke="black" points="147.79,-694.1 144.29,-684.1 140.79,-694.1 147.79,-694.1"/>
</g>
<!-- Łódź -->
<g id="node3" class="node">
<title>Łódź</title>
<ellipse fill="none" stroke="black" cx="144.29" cy="-594" rx="32.49" ry="18"/>
<text text-anchor="middle" x="144.29" y="-590.3" font-family="Times,serif" font-size="14.00">Łódź</text>
</g>
<!-- Poznań&#45;&gt;Łódź -->
<g id="edge2" class="edge">
<title>Poznań&#45;&gt;Łódź</title>
<path fill="none" stroke="black" d="M144.29,-647.7C144.29,-639.98 144.29,-630.71 144.29,-622.11"/>
<polygon fill="black" stroke="black" points="147.79,-622.1 144.29,-612.1 140.79,-622.1 147.79,-622.1"/>
</g>
<!-- Kraków -->
<g id="node4" class="node">
<title>Kraków</title>
<ellipse fill="none" stroke="black" cx="144.29" cy="-522" rx="46.29" ry="18"/>
<text text-anchor="middle" x="144.29" y="-518.3" font-family="Times,serif" font-size="14.00">Kraków</text>
</g>
<!-- Łódź&#45;&gt;Kraków -->
<g id="edge3" class="edge">
<title>Łódź&#45;&gt;Kraków</title>
<path fill="none" stroke="black" d="M144.29,-575.7C144.29,-567.98 144.29,-558.71 144.29,-550.11"/>
<polygon fill="black" stroke="black" points="147.79,-550.1 144.29,-540.1 140.79,-550.1 147.79,-550.1"/>
</g>
<!-- Wrocław, Gdańsk, Bydgoszcz -->
<g id="node5" class="node">
<title>Wrocław, Gdańsk, Bydgoszcz</title>
<ellipse fill="none" stroke="black" cx="144.29" cy="-450" rx="144.07" ry="18"/>
<text text-anchor="middle" x="144.29" y="-446.3" font-family="Times,serif" font-size="14.00">Wrocław, Gdańsk, Bydgoszcz</text>
</g>
<!-- Kraków&#45;&gt;Wrocław, Gdańsk, Bydgoszcz -->
<g id="edge4" class="edge">
<title>Kraków&#45;&gt;Wrocław, Gdańsk, Bydgoszcz</title>
<path fill="none" stroke="black" d="M144.29,-503.7C144.29,-495.98 144.29,-486.71 144.29,-478.11"/>
<polygon fill="black" stroke="black" points="147.79,-478.1 144.29,-468.1 140.79,-478.1 147.79,-478.1"/>
</g>
<!-- Zielona Góra -->
<g id="node6" class="node">
<title>Zielona Góra</title>
<ellipse fill="none" stroke="black" cx="144.29" cy="-378" rx="70.39" ry="18"/>
<text text-anchor="middle" x="144.29" y="-374.3" font-family="Times,serif" font-size="14.00">Zielona Góra</text>
</g>
<!-- Wrocław, Gdańsk, Bydgoszcz&#45;&gt;Zielona Góra -->
<g id="edge5" class="edge">
<title>Wrocław, Gdańsk, Bydgoszcz&#45;&gt;Zielona Góra</title>
<path fill="none" stroke="black" d="M144.29,-431.7C144.29,-423.98 144.29,-414.71 144.29,-406.11"/>
<polygon fill="black" stroke="black" points="147.79,-406.1 144.29,-396.1 140.79,-406.1 147.79,-406.1"/>
</g>
<!-- Lublin, Białystok -->
<g id="node7" class="node">
<title>Lublin, Białystok</title>
<ellipse fill="none" stroke="black" cx="144.29" cy="-306" rx="89.08" ry="18"/>
<text text-anchor="middle" x="144.29" y="-302.3" font-family="Times,serif" font-size="14.00">Lublin, Białystok</text>
</g>
<!-- Zielona Góra&#45;&gt;Lublin, Białystok -->
<g id="edge6" class="edge">
<title>Zielona Góra&#45;&gt;Lublin, Białystok</title>
<path fill="none" stroke="black" d="M144.29,-359.7C144.29,-351.98 144.29,-342.71 144.29,-334.11"/>
<polygon fill="black" stroke="black" points="147.79,-334.1 144.29,-324.1 140.79,-334.1 147.79,-334.1"/>
</g>
<!-- Opole -->
<g id="node8" class="node">
<title>Opole</title>
<ellipse fill="none" stroke="black" cx="144.29" cy="-234" rx="37.89" ry="18"/>
<text text-anchor="middle" x="144.29" y="-230.3" font-family="Times,serif" font-size="14.00">Opole</text>
</g>
<!-- Lublin, Białystok&#45;&gt;Opole -->
<g id="edge7" class="edge">
<title>Lublin, Białystok&#45;&gt;Opole</title>
<path fill="none" stroke="black" d="M144.29,-287.7C144.29,-279.98 144.29,-270.71 144.29,-262.11"/>
<polygon fill="black" stroke="black" points="147.79,-262.1 144.29,-252.1 140.79,-262.1 147.79,-262.1"/>
</g>
<!-- Katowice -->
<g id="node9" class="node">
<title>Katowice</title>
<ellipse fill="none" stroke="black" cx="144.29" cy="-162" rx="53.09" ry="18"/>
<text text-anchor="middle" x="144.29" y="-158.3" font-family="Times,serif" font-size="14.00">Katowice</text>
</g>
<!-- Opole&#45;&gt;Katowice -->
<g id="edge8" class="edge">
<title>Opole&#45;&gt;Katowice</title>
<path fill="none" stroke="black" d="M144.29,-215.7C144.29,-207.98 144.29,-198.71 144.29,-190.11"/>
<polygon fill="black" stroke="black" points="147.79,-190.1 144.29,-180.1 140.79,-190.1 147.79,-190.1"/>
</g>
<!-- Rzeszów -->
<g id="node10" class="node">
<title>Rzeszów</title>
<ellipse fill="none" stroke="black" cx="144.29" cy="-90" rx="50.89" ry="18"/>
<text text-anchor="middle" x="144.29" y="-86.3" font-family="Times,serif" font-size="14.00">Rzeszów</text>
</g>
<!-- Katowice&#45;&gt;Rzeszów -->
<g id="edge9" class="edge">
<title>Katowice&#45;&gt;Rzeszów</title>
<path fill="none" stroke="black" d="M144.29,-143.7C144.29,-135.98 144.29,-126.71 144.29,-118.11"/>
<polygon fill="black" stroke="black" points="147.79,-118.1 144.29,-108.1 140.79,-118.1 147.79,-118.1"/>
</g>
<!-- Kielce -->
<g id="node11" class="node">
<title>Kielce</title>
<ellipse fill="none" stroke="black" cx="144.29" cy="-18" rx="38.99" ry="18"/>
<text text-anchor="middle" x="144.29" y="-14.3" font-family="Times,serif" font-size="14.00">Kielce</text>
</g>
<!-- Rzeszów&#45;&gt;Kielce -->
<g id="edge10" class="edge">
<title>Rzeszów&#45;&gt;Kielce</title>
<path fill="none" stroke="black" d="M144.29,-71.7C144.29,-63.98 144.29,-54.71 144.29,-46.11"/>
<polygon fill="black" stroke="black" points="147.79,-46.1 144.29,-36.1 140.79,-46.1 147.79,-46.1"/>
</g>
</g>
</svg>
