<?xml version="1.0" encoding="UTF-8" standalone="no"?>
<!DOCTYPE svg PUBLIC "-//W3C//DTD SVG 1.1//EN"
 "http://www.w3.org/Graphics/SVG/1.1/DTD/svg11.dtd">
<!-- Generated by graphviz version 2.50.0 (0)
 -->
<!-- Pages: 1 -->
<svg width="272pt" height="836pt"
 viewBox="0.00 0.00 271.88 836.00" xmlns="http://www.w3.org/2000/svg" xmlns:xlink="http://www.w3.org/1999/xlink">
<g id="graph0" class="graph" transform="scale(1 1) rotate(0) translate(4 832)">
<polygon fill="white" stroke="transparent" points="-4,4 -4,-832 267.88,-832 267.88,4 -4,4"/>
<!-- Poznań -->
<g id="node1" class="node">
<title>Poznań</title>
<ellipse fill="none" stroke="black" cx="131.94" cy="-810" rx="44.39" ry="18"/>
<text text-anchor="middle" x="131.94" y="-806.3" font-family="Times,serif" font-size="14.00">Poznań</text>
</g>
<!-- Bydgoszcz -->
<g id="node2" class="node">
<title>Bydgoszcz</title>
<ellipse fill="none" stroke="black" cx="131.94" cy="-738" rx="59.59" ry="18"/>
<text text-anchor="middle" x="131.94" y="-734.3" font-family="Times,serif" font-size="14.00">Bydgoszcz</text>
</g>
<!-- Poznań&#45;&gt;Bydgoszcz -->
<g id="edge1" class="edge">
<title>Poznań&#45;&gt;Bydgoszcz</title>
<path fill="none" stroke="black" d="M131.94,-791.7C131.94,-783.98 131.94,-774.71 131.94,-766.11"/>
<polygon fill="black" stroke="black" points="135.44,-766.1 131.94,-756.1 128.44,-766.1 135.44,-766.1"/>
</g>
<!-- Gdańsk -->
<g id="node3" class="node">
<title>Gdańsk</title>
<ellipse fill="none" stroke="black" cx="131.94" cy="-666" rx="45.49" ry="18"/>
<text text-anchor="middle" x="131.94" y="-662.3" font-family="Times,serif" font-size="14.00">Gdańsk</text>
</g>
<!-- Bydgoszcz&#45;&gt;Gdańsk -->
<g id="edge2" class="edge">
<title>Bydgoszcz&#45;&gt;Gdańsk</title>
<path fill="none" stroke="black" d="M131.94,-719.7C131.94,-711.98 131.94,-702.71 131.94,-694.11"/>
<polygon fill="black" stroke="black" points="135.44,-694.1 131.94,-684.1 128.44,-694.1 135.44,-694.1"/>
</g>
<!-- Warszawa -->
<g id="node4" class="node">
<title>Warszawa</title>
<ellipse fill="none" stroke="black" cx="131.94" cy="-594" rx="57.69" ry="18"/>
<text text-anchor="middle" x="131.94" y="-590.3" font-family="Times,serif" font-size="14.00">Warszawa</text>
</g>
<!-- Gdańsk&#45;&gt;Warszawa -->
<g id="edge3" class="edge">
<title>Gdańsk&#45;&gt;Warszawa</title>
<path fill="none" stroke="black" d="M131.94,-647.7C131.94,-639.98 131.94,-630.71 131.94,-622.11"/>
<polygon fill="black" stroke="black" points="135.44,-622.1 131.94,-612.1 128.44,-622.1 135.44,-622.1"/>
</g>
<!-- Łódź -->
<g id="node5" class="node">
<title>Łódź</title>
<ellipse fill="none" stroke="black" cx="131.94" cy="-522" rx="32.49" ry="18"/>
<text text-anchor="middle" x="131.94" y="-518.3" font-family="Times,serif" font-size="14.00">Łódź</text>
</g>
<!-- Warszawa&#45;&gt;Łódź -->
<g id="edge4" class="edge">
<title>Warszawa&#45;&gt;Łódź</title>
<path fill="none" stroke="black" d="M131.94,-575.7C131.94,-567.98 131.94,-558.71 131.94,-550.11"/>
<polygon fill="black" stroke="black" points="135.44,-550.1 131.94,-540.1 128.44,-550.1 135.44,-550.1"/>
</g>
<!-- Zielona Góra -->
<g id="node6" class="node">
<title>Zielona Góra</title>
<ellipse fill="none" stroke="black" cx="131.94" cy="-450" rx="70.39" ry="18"/>
<text text-anchor="middle" x="131.94" y="-446.3" font-family="Times,serif" font-size="14.00">Zielona Góra</text>
</g>
<!-- Łódź&#45;&gt;Zielona Góra -->
<g id="edge5" class="edge">
<title>Łódź&#45;&gt;Zielona Góra</title>
<path fill="none" stroke="black" d="M131.94,-503.7C131.94,-495.98 131.94,-486.71 131.94,-478.11"/>
<polygon fill="black" stroke="black" points="135.44,-478.1 131.94,-468.1 128.44,-478.1 135.44,-478.1"/>
</g>
<!-- Wrocław -->
<g id="node7" class="node">
<title>Wrocław</title>
<ellipse fill="none" stroke="black" cx="131.94" cy="-378" rx="50.09" ry="18"/>
<text text-anchor="middle" x="131.94" y="-374.3" font-family="Times,serif" font-size="14.00">Wrocław</text>
</g>
<!-- Zielona Góra&#45;&gt;Wrocław -->
<g id="edge6" class="edge">
<title>Zielona Góra&#45;&gt;Wrocław</title>
<path fill="none" stroke="black" d="M131.94,-431.7C131.94,-423.98 131.94,-414.71 131.94,-406.11"/>
<polygon fill="black" stroke="black" points="135.44,-406.1 131.94,-396.1 128.44,-406.1 135.44,-406.1"/>
</g>
<!-- Opole -->
<g id="node8" class="node">
<title>Opole</title>
<ellipse fill="none" stroke="black" cx="131.94" cy="-306" rx="37.89" ry="18"/>
<text text-anchor="middle" x="131.94" y="-302.3" font-family="Times,serif" font-size="14.00">Opole</text>
</g>
<!-- Wrocław&#45;&gt;Opole -->
<g id="edge7" class="edge">
<title>Wrocław&#45;&gt;Opole</title>
<path fill="none" stroke="black" d="M131.94,-359.7C131.94,-351.98 131.94,-342.71 131.94,-334.11"/>
<polygon fill="black" stroke="black" points="135.44,-334.1 131.94,-324.1 128.44,-334.1 135.44,-334.1"/>
</g>
<!-- Białystok -->
<g id="node9" class="node">
<title>Białystok</title>
<ellipse fill="none" stroke="black" cx="131.94" cy="-234" rx="53.89" ry="18"/>
<text text-anchor="middle" x="131.94" y="-230.3" font-family="Times,serif" font-size="14.00">Białystok</text>
</g>
<!-- Opole&#45;&gt;Białystok -->
<g id="edge8" class="edge">
<title>Opole&#45;&gt;Białystok</title>
<path fill="none" stroke="black" d="M131.94,-287.7C131.94,-279.98 131.94,-270.71 131.94,-262.11"/>
<polygon fill="black" stroke="black" points="135.44,-262.1 131.94,-252.1 128.44,-262.1 135.44,-262.1"/>
</g>
<!-- Lublin -->
<g id="node10" class="node">
<title>Lublin</title>
<ellipse fill="none" stroke="black" cx="131.94" cy="-162" rx="40.09" ry="18"/>
<text text-anchor="middle" x="131.94" y="-158.3" font-family="Times,serif" font-size="14.00">Lublin</text>
</g>
<!-- Białystok&#45;&gt;Lublin -->
<g id="edge9" class="edge">
<title>Białystok&#45;&gt;Lublin</title>
<path fill="none" stroke="black" d="M131.94,-215.7C131.94,-207.98 131.94,-198.71 131.94,-190.11"/>
<polygon fill="black" stroke="black" points="135.44,-190.1 131.94,-180.1 128.44,-190.1 135.44,-190.1"/>
</g>
<!-- Kraków -->
<g id="node11" class="node">
<title>Kraków</title>
<ellipse fill="none" stroke="black" cx="131.94" cy="-90" rx="46.29" ry="18"/>
<text text-anchor="middle" x="131.94" y="-86.3" font-family="Times,serif" font-size="14.00">Kraków</text>
</g>
<!-- Lublin&#45;&gt;Kraków -->
<g id="edge10" class="edge">
<title>Lublin&#45;&gt;Kraków</title>
<path fill="none" stroke="black" d="M131.94,-143.7C131.94,-135.98 131.94,-126.71 131.94,-118.11"/>
<polygon fill="black" stroke="black" points="135.44,-118.1 131.94,-108.1 128.44,-118.1 135.44,-118.1"/>
</g>
<!-- Rzeszów, Kielce, Katowice -->
<g id="node12" class="node">
<title>Rzeszów, Kielce, Katowice</title>
<ellipse fill="none" stroke="black" cx="131.94" cy="-18" rx="131.88" ry="18"/>
<text text-anchor="middle" x="131.94" y="-14.3" font-family="Times,serif" font-size="14.00">Rzeszów, Kielce, Katowice</text>
</g>
<!-- Kraków&#45;&gt;Rzeszów, Kielce, Katowice -->
<g id="edge11" class="edge">
<title>Kraków&#45;&gt;Rzeszów, Kielce, Katowice</title>
<path fill="none" stroke="black" d="M131.94,-71.7C131.94,-63.98 131.94,-54.71 131.94,-46.11"/>
<polygon fill="black" stroke="black" points="135.44,-46.1 131.94,-36.1 128.44,-46.1 135.44,-46.1"/>
</g>
</g>
</svg>
