<?xml version="1.0" encoding="UTF-8" standalone="no"?>
<!DOCTYPE svg PUBLIC "-//W3C//DTD SVG 1.1//EN"
 "http://www.w3.org/Graphics/SVG/1.1/DTD/svg11.dtd">
<!-- Generated by graphviz version 10.0.1 (20240210.2158)
 -->
<!-- Pages: 1 -->
<svg width="299pt" height="620pt"
 viewBox="0.00 0.00 299.13 620.00" xmlns="http://www.w3.org/2000/svg" xmlns:xlink="http://www.w3.org/1999/xlink">
<g id="graph0" class="graph" transform="scale(1 1) rotate(0) translate(4 616)">
<polygon fill="white" stroke="none" points="-4,4 -4,-616 295.13,-616 295.13,4 -4,4"/>
<!-- Warszawa -->
<g id="node1" class="node">
<title>Warszawa</title>
<ellipse fill="none" stroke="black" cx="180.05" cy="-522" rx="49.07" ry="18"/>
<text text-anchor="middle" x="180.05" y="-516.58" font-family="Times New Roman,serif" font-size="14.00">Warszawa</text>
</g>
<!-- Łódź -->
<g id="node12" class="node">
<title>Łódź</title>
<ellipse fill="none" stroke="black" cx="181.05" cy="-450" rx="30.61" ry="18"/>
<text text-anchor="middle" x="181.05" y="-444.57" font-family="Times New Roman,serif" font-size="14.00">Łódź</text>
</g>
<!-- Warszawa&#45;&gt;Łódź -->
<g id="edge1" class="edge">
<title>Warszawa&#45;&gt;Łódź</title>
<path fill="none" stroke="black" d="M180.3,-503.7C180.4,-496.41 180.52,-487.73 180.64,-479.54"/>
<polygon fill="black" stroke="black" points="184.14,-479.67 180.78,-469.62 177.14,-479.57 184.14,-479.67"/>
</g>
<!-- Kielce -->
<g id="node2" class="node">
<title>Kielce</title>
<ellipse fill="none" stroke="black" cx="181.05" cy="-18" rx="33.6" ry="18"/>
<text text-anchor="middle" x="181.05" y="-12.57" font-family="Times New Roman,serif" font-size="14.00">Kielce</text>
</g>
<!-- Kraków -->
<g id="node3" class="node">
<title>Kraków</title>
<ellipse fill="none" stroke="black" cx="251.05" cy="-234" rx="40.09" ry="18"/>
<text text-anchor="middle" x="251.05" y="-228.57" font-family="Times New Roman,serif" font-size="14.00">Kraków</text>
</g>
<!-- Katowice -->
<g id="node13" class="node">
<title>Katowice</title>
<ellipse fill="none" stroke="black" cx="181.05" cy="-162" rx="45.57" ry="18"/>
<text text-anchor="middle" x="181.05" y="-156.57" font-family="Times New Roman,serif" font-size="14.00">Katowice</text>
</g>
<!-- Kraków&#45;&gt;Katowice -->
<g id="edge2" class="edge">
<title>Kraków&#45;&gt;Katowice</title>
<path fill="none" stroke="black" d="M235.16,-217.12C226.21,-208.17 214.86,-196.81 204.86,-186.81"/>
<polygon fill="black" stroke="black" points="207.49,-184.49 197.94,-179.89 202.54,-189.44 207.49,-184.49"/>
</g>
<!-- Wrocław -->
<g id="node4" class="node">
<title>Wrocław</title>
<ellipse fill="none" stroke="black" cx="181.05" cy="-378" rx="44.58" ry="18"/>
<text text-anchor="middle" x="181.05" y="-372.57" font-family="Times New Roman,serif" font-size="14.00">Wrocław</text>
</g>
<!-- Opole -->
<g id="node9" class="node">
<title>Opole</title>
<ellipse fill="none" stroke="black" cx="181.05" cy="-306" rx="33.6" ry="18"/>
<text text-anchor="middle" x="181.05" y="-300.57" font-family="Times New Roman,serif" font-size="14.00">Opole</text>
</g>
<!-- Wrocław&#45;&gt;Opole -->
<g id="edge3" class="edge">
<title>Wrocław&#45;&gt;Opole</title>
<path fill="none" stroke="black" d="M181.05,-359.7C181.05,-352.41 181.05,-343.73 181.05,-335.54"/>
<polygon fill="black" stroke="black" points="184.55,-335.62 181.05,-325.62 177.55,-335.62 184.55,-335.62"/>
</g>
<!-- Białystok -->
<g id="node14" class="node">
<title>Białystok</title>
<ellipse fill="none" stroke="black" cx="84.05" cy="-306" rx="45.08" ry="18"/>
<text text-anchor="middle" x="84.05" y="-300.57" font-family="Times New Roman,serif" font-size="14.00">Białystok</text>
</g>
<!-- Wrocław&#45;&gt;Białystok -->
<g id="edge4" class="edge">
<title>Wrocław&#45;&gt;Białystok</title>
<path fill="none" stroke="black" d="M160,-361.81C146.65,-352.18 129.17,-339.56 114.34,-328.86"/>
<polygon fill="black" stroke="black" points="116.44,-326.06 106.28,-323.05 112.34,-331.74 116.44,-326.06"/>
</g>
<!-- Poznań -->
<g id="node5" class="node">
<title>Poznań</title>
<ellipse fill="none" stroke="black" cx="159.05" cy="-594" rx="38.09" ry="18"/>
<text text-anchor="middle" x="159.05" y="-588.58" font-family="Times New Roman,serif" font-size="14.00">Poznań</text>
</g>
<!-- Bydgoszcz -->
<g id="node10" class="node">
<title>Bydgoszcz</title>
<ellipse fill="none" stroke="black" cx="61.05" cy="-522" rx="52.06" ry="18"/>
<text text-anchor="middle" x="61.05" y="-516.58" font-family="Times New Roman,serif" font-size="14.00">Bydgoszcz</text>
</g>
<!-- Poznań&#45;&gt;Bydgoszcz -->
<g id="edge5" class="edge">
<title>Poznań&#45;&gt;Bydgoszcz</title>
<path fill="none" stroke="black" d="M138.74,-578.5C125.28,-568.88 107.35,-556.07 92.11,-545.19"/>
<polygon fill="black" stroke="black" points="94.43,-542.55 84.26,-539.58 90.37,-548.24 94.43,-542.55"/>
</g>
<!-- Poznań&#45;&gt;Łódź -->
<g id="edge6" class="edge">
<title>Poznań&#45;&gt;Łódź</title>
<path fill="none" stroke="black" d="M187.88,-582.05C205.84,-573.54 227.48,-559.82 238.05,-540 245.58,-525.88 244.44,-518.67 238.05,-504 232.27,-490.74 221.36,-479.3 210.62,-470.48"/>
<polygon fill="black" stroke="black" points="213.03,-467.92 202.96,-464.63 208.78,-473.48 213.03,-467.92"/>
</g>
<!-- Rzeszów -->
<g id="node6" class="node">
<title>Rzeszów</title>
<ellipse fill="none" stroke="black" cx="181.05" cy="-90" rx="44.58" ry="18"/>
<text text-anchor="middle" x="181.05" y="-84.58" font-family="Times New Roman,serif" font-size="14.00">Rzeszów</text>
</g>
<!-- Rzeszów&#45;&gt;Kielce -->
<g id="edge7" class="edge">
<title>Rzeszów&#45;&gt;Kielce</title>
<path fill="none" stroke="black" d="M181.05,-71.7C181.05,-64.41 181.05,-55.73 181.05,-47.54"/>
<polygon fill="black" stroke="black" points="184.55,-47.62 181.05,-37.62 177.55,-47.62 184.55,-47.62"/>
</g>
<!-- Gdańsk -->
<g id="node7" class="node">
<title>Gdańsk</title>
<ellipse fill="none" stroke="black" cx="61.05" cy="-450" rx="39.59" ry="18"/>
<text text-anchor="middle" x="61.05" y="-444.57" font-family="Times New Roman,serif" font-size="14.00">Gdańsk</text>
</g>
<!-- Gdańsk&#45;&gt;Wrocław -->
<g id="edge8" class="edge">
<title>Gdańsk&#45;&gt;Wrocław</title>
<path fill="none" stroke="black" d="M84.76,-435.17C102.44,-424.86 126.86,-410.61 146.68,-399.05"/>
<polygon fill="black" stroke="black" points="148.38,-402.11 155.26,-394.04 144.86,-396.06 148.38,-402.11"/>
</g>
<!-- Zielona Góra -->
<g id="node11" class="node">
<title>Zielona Góra</title>
<ellipse fill="none" stroke="black" cx="59.05" cy="-378" rx="59.05" ry="18"/>
<text text-anchor="middle" x="59.05" y="-372.57" font-family="Times New Roman,serif" font-size="14.00">Zielona Góra</text>
</g>
<!-- Gdańsk&#45;&gt;Zielona Góra -->
<g id="edge9" class="edge">
<title>Gdańsk&#45;&gt;Zielona Góra</title>
<path fill="none" stroke="black" d="M60.55,-431.7C60.35,-424.41 60.1,-415.73 59.86,-407.54"/>
<polygon fill="black" stroke="black" points="63.36,-407.51 59.58,-397.62 56.37,-407.71 63.36,-407.51"/>
</g>
<!-- Lublin -->
<g id="node8" class="node">
<title>Lublin</title>
<ellipse fill="none" stroke="black" cx="102.05" cy="-234" rx="34.1" ry="18"/>
<text text-anchor="middle" x="102.05" y="-228.57" font-family="Times New Roman,serif" font-size="14.00">Lublin</text>
</g>
<!-- Lublin&#45;&gt;Katowice -->
<g id="edge10" class="edge">
<title>Lublin&#45;&gt;Katowice</title>
<path fill="none" stroke="black" d="M118.8,-218.15C129.2,-208.94 142.78,-196.91 154.6,-186.43"/>
<polygon fill="black" stroke="black" points="156.92,-189.05 162.09,-179.8 152.28,-183.81 156.92,-189.05"/>
</g>
<!-- Opole&#45;&gt;Katowice -->
<g id="edge11" class="edge">
<title>Opole&#45;&gt;Katowice</title>
<path fill="none" stroke="black" d="M181.05,-287.59C181.05,-263.61 181.05,-220.14 181.05,-191.42"/>
<polygon fill="black" stroke="black" points="184.55,-191.62 181.05,-181.62 177.55,-191.62 184.55,-191.62"/>
</g>
<!-- Bydgoszcz&#45;&gt;Gdańsk -->
<g id="edge12" class="edge">
<title>Bydgoszcz&#45;&gt;Gdańsk</title>
<path fill="none" stroke="black" d="M61.05,-503.7C61.05,-496.41 61.05,-487.73 61.05,-479.54"/>
<polygon fill="black" stroke="black" points="64.55,-479.62 61.05,-469.62 57.55,-479.62 64.55,-479.62"/>
</g>
<!-- Zielona Góra&#45;&gt;Opole -->
<g id="edge13" class="edge">
<title>Zielona Góra&#45;&gt;Opole</title>
<path fill="none" stroke="black" d="M85.82,-361.64C104.46,-350.95 129.39,-336.64 149.07,-325.35"/>
<polygon fill="black" stroke="black" points="150.58,-328.52 157.51,-320.5 147.1,-322.44 150.58,-328.52"/>
</g>
<!-- Zielona Góra&#45;&gt;Białystok -->
<g id="edge14" class="edge">
<title>Zielona Góra&#45;&gt;Białystok</title>
<path fill="none" stroke="black" d="M65.23,-359.7C67.92,-352.15 71.15,-343.12 74.16,-334.68"/>
<polygon fill="black" stroke="black" points="77.36,-336.12 77.43,-325.53 70.77,-333.77 77.36,-336.12"/>
</g>
<!-- Łódź&#45;&gt;Kraków -->
<g id="edge15" class="edge">
<title>Łódź&#45;&gt;Kraków</title>
<path fill="none" stroke="black" d="M200.43,-435.6C212.57,-426.06 227.33,-412.11 235.05,-396 255.48,-353.36 255.96,-297.19 253.89,-263.71"/>
<polygon fill="black" stroke="black" points="257.4,-263.69 253.16,-253.98 250.42,-264.22 257.4,-263.69"/>
</g>
<!-- Łódź&#45;&gt;Wrocław -->
<g id="edge16" class="edge">
<title>Łódź&#45;&gt;Wrocław</title>
<path fill="none" stroke="black" d="M181.05,-431.7C181.05,-424.41 181.05,-415.73 181.05,-407.54"/>
<polygon fill="black" stroke="black" points="184.55,-407.62 181.05,-397.62 177.55,-407.62 184.55,-407.62"/>
</g>
<!-- Łódź&#45;&gt;Zielona Góra -->
<g id="edge17" class="edge">
<title>Łódź&#45;&gt;Zielona Góra</title>
<path fill="none" stroke="black" d="M159.8,-436.81C142.2,-426.71 116.78,-412.12 95.87,-400.13"/>
<polygon fill="black" stroke="black" points="97.76,-397.18 87.34,-395.23 94.27,-403.25 97.76,-397.18"/>
</g>
<!-- Katowice&#45;&gt;Rzeszów -->
<g id="edge18" class="edge">
<title>Katowice&#45;&gt;Rzeszów</title>
<path fill="none" stroke="black" d="M181.05,-143.7C181.05,-136.41 181.05,-127.73 181.05,-119.54"/>
<polygon fill="black" stroke="black" points="184.55,-119.62 181.05,-109.62 177.55,-119.62 184.55,-119.62"/>
</g>
<!-- Białystok&#45;&gt;Lublin -->
<g id="edge19" class="edge">
<title>Białystok&#45;&gt;Lublin</title>
<path fill="none" stroke="black" d="M88.5,-287.7C90.39,-280.32 92.66,-271.52 94.78,-263.25"/>
<polygon fill="black" stroke="black" points="98.17,-264.13 97.27,-253.57 91.39,-262.38 98.17,-264.13"/>
</g>
</g>
</svg>
