<?xml version="1.0" encoding="UTF-8" standalone="no"?>
<!DOCTYPE svg PUBLIC "-//W3C//DTD SVG 1.1//EN"
 "http://www.w3.org/Graphics/SVG/1.1/DTD/svg11.dtd">
<!-- Generated by graphviz version 9.0.0 (20230911.1827)
 -->
<!-- Pages: 1 -->
<svg width="204pt" height="836pt"
 viewBox="0.00 0.00 203.94 836.00" xmlns="http://www.w3.org/2000/svg" xmlns:xlink="http://www.w3.org/1999/xlink">
<g id="graph0" class="graph" transform="scale(1 1) rotate(0) translate(4 832)">
<polygon fill="white" stroke="none" points="-4,4 -4,-832 199.94,-832 199.94,4 -4,4"/>
<!-- Poznań -->
<g id="node1" class="node">
<title>Poznań</title>
<ellipse fill="none" stroke="black" cx="97.97" cy="-810" rx="38.09" ry="18"/>
<text text-anchor="middle" x="97.97" y="-804.58" font-family="Times New Roman,serif" font-size="14.00">Poznań</text>
</g>
<!-- Warszawa -->
<g id="node2" class="node">
<title>Warszawa</title>
<ellipse fill="none" stroke="black" cx="97.97" cy="-738" rx="49.07" ry="18"/>
<text text-anchor="middle" x="97.97" y="-732.58" font-family="Times New Roman,serif" font-size="14.00">Warszawa</text>
</g>
<!-- Poznań&#45;&gt;Warszawa -->
<g id="edge1" class="edge">
<title>Poznań&#45;&gt;Warszawa</title>
<path fill="none" stroke="black" d="M97.97,-791.7C97.97,-784.41 97.97,-775.73 97.97,-767.54"/>
<polygon fill="black" stroke="black" points="101.47,-767.62 97.97,-757.62 94.47,-767.62 101.47,-767.62"/>
</g>
<!-- Bydgoszcz -->
<g id="node3" class="node">
<title>Bydgoszcz</title>
<ellipse fill="none" stroke="black" cx="97.97" cy="-666" rx="52.06" ry="18"/>
<text text-anchor="middle" x="97.97" y="-660.58" font-family="Times New Roman,serif" font-size="14.00">Bydgoszcz</text>
</g>
<!-- Warszawa&#45;&gt;Bydgoszcz -->
<g id="edge2" class="edge">
<title>Warszawa&#45;&gt;Bydgoszcz</title>
<path fill="none" stroke="black" d="M97.97,-719.7C97.97,-712.41 97.97,-703.73 97.97,-695.54"/>
<polygon fill="black" stroke="black" points="101.47,-695.62 97.97,-685.62 94.47,-695.62 101.47,-695.62"/>
</g>
<!-- Gdańsk, Łódź -->
<g id="node4" class="node">
<title>Gdańsk, Łódź</title>
<ellipse fill="none" stroke="black" cx="97.97" cy="-594" rx="64.54" ry="18"/>
<text text-anchor="middle" x="97.97" y="-588.58" font-family="Times New Roman,serif" font-size="14.00">Gdańsk, Łódź</text>
</g>
<!-- Bydgoszcz&#45;&gt;Gdańsk, Łódź -->
<g id="edge3" class="edge">
<title>Bydgoszcz&#45;&gt;Gdańsk, Łódź</title>
<path fill="none" stroke="black" d="M97.97,-647.7C97.97,-640.41 97.97,-631.73 97.97,-623.54"/>
<polygon fill="black" stroke="black" points="101.47,-623.62 97.97,-613.62 94.47,-623.62 101.47,-623.62"/>
</g>
<!-- Zielona Góra, Wrocław -->
<g id="node5" class="node">
<title>Zielona Góra, Wrocław</title>
<ellipse fill="none" stroke="black" cx="97.97" cy="-522" rx="97.97" ry="18"/>
<text text-anchor="middle" x="97.97" y="-516.58" font-family="Times New Roman,serif" font-size="14.00">Zielona Góra, Wrocław</text>
</g>
<!-- Gdańsk, Łódź&#45;&gt;Zielona Góra, Wrocław -->
<g id="edge4" class="edge">
<title>Gdańsk, Łódź&#45;&gt;Zielona Góra, Wrocław</title>
<path fill="none" stroke="black" d="M97.97,-575.7C97.97,-568.41 97.97,-559.73 97.97,-551.54"/>
<polygon fill="black" stroke="black" points="101.47,-551.62 97.97,-541.62 94.47,-551.62 101.47,-551.62"/>
</g>
<!-- Białystok -->
<g id="node6" class="node">
<title>Białystok</title>
<ellipse fill="none" stroke="black" cx="97.97" cy="-450" rx="45.08" ry="18"/>
<text text-anchor="middle" x="97.97" y="-444.57" font-family="Times New Roman,serif" font-size="14.00">Białystok</text>
</g>
<!-- Zielona Góra, Wrocław&#45;&gt;Białystok -->
<g id="edge5" class="edge">
<title>Zielona Góra, Wrocław&#45;&gt;Białystok</title>
<path fill="none" stroke="black" d="M97.97,-503.7C97.97,-496.41 97.97,-487.73 97.97,-479.54"/>
<polygon fill="black" stroke="black" points="101.47,-479.62 97.97,-469.62 94.47,-479.62 101.47,-479.62"/>
</g>
<!-- Kraków -->
<g id="node7" class="node">
<title>Kraków</title>
<ellipse fill="none" stroke="black" cx="97.97" cy="-378" rx="40.09" ry="18"/>
<text text-anchor="middle" x="97.97" y="-372.57" font-family="Times New Roman,serif" font-size="14.00">Kraków</text>
</g>
<!-- Białystok&#45;&gt;Kraków -->
<g id="edge6" class="edge">
<title>Białystok&#45;&gt;Kraków</title>
<path fill="none" stroke="black" d="M97.97,-431.7C97.97,-424.41 97.97,-415.73 97.97,-407.54"/>
<polygon fill="black" stroke="black" points="101.47,-407.62 97.97,-397.62 94.47,-407.62 101.47,-407.62"/>
</g>
<!-- Opole -->
<g id="node8" class="node">
<title>Opole</title>
<ellipse fill="none" stroke="black" cx="97.97" cy="-306" rx="33.6" ry="18"/>
<text text-anchor="middle" x="97.97" y="-300.57" font-family="Times New Roman,serif" font-size="14.00">Opole</text>
</g>
<!-- Kraków&#45;&gt;Opole -->
<g id="edge7" class="edge">
<title>Kraków&#45;&gt;Opole</title>
<path fill="none" stroke="black" d="M97.97,-359.7C97.97,-352.41 97.97,-343.73 97.97,-335.54"/>
<polygon fill="black" stroke="black" points="101.47,-335.62 97.97,-325.62 94.47,-335.62 101.47,-335.62"/>
</g>
<!-- Lublin -->
<g id="node9" class="node">
<title>Lublin</title>
<ellipse fill="none" stroke="black" cx="97.97" cy="-234" rx="34.1" ry="18"/>
<text text-anchor="middle" x="97.97" y="-228.57" font-family="Times New Roman,serif" font-size="14.00">Lublin</text>
</g>
<!-- Opole&#45;&gt;Lublin -->
<g id="edge8" class="edge">
<title>Opole&#45;&gt;Lublin</title>
<path fill="none" stroke="black" d="M97.97,-287.7C97.97,-280.41 97.97,-271.73 97.97,-263.54"/>
<polygon fill="black" stroke="black" points="101.47,-263.62 97.97,-253.62 94.47,-263.62 101.47,-263.62"/>
</g>
<!-- Katowice -->
<g id="node10" class="node">
<title>Katowice</title>
<ellipse fill="none" stroke="black" cx="97.97" cy="-162" rx="45.57" ry="18"/>
<text text-anchor="middle" x="97.97" y="-156.57" font-family="Times New Roman,serif" font-size="14.00">Katowice</text>
</g>
<!-- Lublin&#45;&gt;Katowice -->
<g id="edge9" class="edge">
<title>Lublin&#45;&gt;Katowice</title>
<path fill="none" stroke="black" d="M97.97,-215.7C97.97,-208.41 97.97,-199.73 97.97,-191.54"/>
<polygon fill="black" stroke="black" points="101.47,-191.62 97.97,-181.62 94.47,-191.62 101.47,-191.62"/>
</g>
<!-- Rzeszów -->
<g id="node11" class="node">
<title>Rzeszów</title>
<ellipse fill="none" stroke="black" cx="97.97" cy="-90" rx="44.58" ry="18"/>
<text text-anchor="middle" x="97.97" y="-84.58" font-family="Times New Roman,serif" font-size="14.00">Rzeszów</text>
</g>
<!-- Katowice&#45;&gt;Rzeszów -->
<g id="edge10" class="edge">
<title>Katowice&#45;&gt;Rzeszów</title>
<path fill="none" stroke="black" d="M97.97,-143.7C97.97,-136.41 97.97,-127.73 97.97,-119.54"/>
<polygon fill="black" stroke="black" points="101.47,-119.62 97.97,-109.62 94.47,-119.62 101.47,-119.62"/>
</g>
<!-- Kielce -->
<g id="node12" class="node">
<title>Kielce</title>
<ellipse fill="none" stroke="black" cx="97.97" cy="-18" rx="33.6" ry="18"/>
<text text-anchor="middle" x="97.97" y="-12.57" font-family="Times New Roman,serif" font-size="14.00">Kielce</text>
</g>
<!-- Rzeszów&#45;&gt;Kielce -->
<g id="edge11" class="edge">
<title>Rzeszów&#45;&gt;Kielce</title>
<path fill="none" stroke="black" d="M97.97,-71.7C97.97,-64.41 97.97,-55.73 97.97,-47.54"/>
<polygon fill="black" stroke="black" points="101.47,-47.62 97.97,-37.62 94.47,-47.62 101.47,-47.62"/>
</g>
</g>
</svg>
