<?xml version="1.0" encoding="UTF-8" standalone="no"?>
<!DOCTYPE svg PUBLIC "-//W3C//DTD SVG 1.1//EN"
 "http://www.w3.org/Graphics/SVG/1.1/DTD/svg11.dtd">
<!-- Generated by graphviz version 10.0.1 (20240210.2158)
 -->
<!-- Pages: 1 -->
<svg width="194pt" height="908pt"
 viewBox="0.00 0.00 193.96 908.00" xmlns="http://www.w3.org/2000/svg" xmlns:xlink="http://www.w3.org/1999/xlink">
<g id="graph0" class="graph" transform="scale(1 1) rotate(0) translate(4 904)">
<polygon fill="white" stroke="none" points="-4,4 -4,-904 189.96,-904 189.96,4 -4,4"/>
<!-- Poznań -->
<g id="node1" class="node">
<title>Poznań</title>
<ellipse fill="none" stroke="black" cx="92.98" cy="-882" rx="38.09" ry="18"/>
<text text-anchor="middle" x="92.98" y="-876.58" font-family="Times New Roman,serif" font-size="14.00">Poznań</text>
</g>
<!-- Bydgoszcz -->
<g id="node2" class="node">
<title>Bydgoszcz</title>
<ellipse fill="none" stroke="black" cx="92.98" cy="-810" rx="52.06" ry="18"/>
<text text-anchor="middle" x="92.98" y="-804.58" font-family="Times New Roman,serif" font-size="14.00">Bydgoszcz</text>
</g>
<!-- Poznań&#45;&gt;Bydgoszcz -->
<g id="edge1" class="edge">
<title>Poznań&#45;&gt;Bydgoszcz</title>
<path fill="none" stroke="black" d="M92.98,-863.7C92.98,-856.41 92.98,-847.73 92.98,-839.54"/>
<polygon fill="black" stroke="black" points="96.48,-839.62 92.98,-829.62 89.48,-839.62 96.48,-839.62"/>
</g>
<!-- Warszawa -->
<g id="node3" class="node">
<title>Warszawa</title>
<ellipse fill="none" stroke="black" cx="92.98" cy="-738" rx="49.07" ry="18"/>
<text text-anchor="middle" x="92.98" y="-732.58" font-family="Times New Roman,serif" font-size="14.00">Warszawa</text>
</g>
<!-- Bydgoszcz&#45;&gt;Warszawa -->
<g id="edge2" class="edge">
<title>Bydgoszcz&#45;&gt;Warszawa</title>
<path fill="none" stroke="black" d="M92.98,-791.7C92.98,-784.41 92.98,-775.73 92.98,-767.54"/>
<polygon fill="black" stroke="black" points="96.48,-767.62 92.98,-757.62 89.48,-767.62 96.48,-767.62"/>
</g>
<!-- Gdańsk, Zielona Góra -->
<g id="node4" class="node">
<title>Gdańsk, Zielona Góra</title>
<ellipse fill="none" stroke="black" cx="92.98" cy="-666" rx="92.98" ry="18"/>
<text text-anchor="middle" x="92.98" y="-660.58" font-family="Times New Roman,serif" font-size="14.00">Gdańsk, Zielona Góra</text>
</g>
<!-- Warszawa&#45;&gt;Gdańsk, Zielona Góra -->
<g id="edge3" class="edge">
<title>Warszawa&#45;&gt;Gdańsk, Zielona Góra</title>
<path fill="none" stroke="black" d="M92.98,-719.7C92.98,-712.41 92.98,-703.73 92.98,-695.54"/>
<polygon fill="black" stroke="black" points="96.48,-695.62 92.98,-685.62 89.48,-695.62 96.48,-695.62"/>
</g>
<!-- Wrocław -->
<g id="node5" class="node">
<title>Wrocław</title>
<ellipse fill="none" stroke="black" cx="92.98" cy="-594" rx="44.58" ry="18"/>
<text text-anchor="middle" x="92.98" y="-588.58" font-family="Times New Roman,serif" font-size="14.00">Wrocław</text>
</g>
<!-- Gdańsk, Zielona Góra&#45;&gt;Wrocław -->
<g id="edge4" class="edge">
<title>Gdańsk, Zielona Góra&#45;&gt;Wrocław</title>
<path fill="none" stroke="black" d="M92.98,-647.7C92.98,-640.41 92.98,-631.73 92.98,-623.54"/>
<polygon fill="black" stroke="black" points="96.48,-623.62 92.98,-613.62 89.48,-623.62 96.48,-623.62"/>
</g>
<!-- Łódź -->
<g id="node6" class="node">
<title>Łódź</title>
<ellipse fill="none" stroke="black" cx="92.98" cy="-522" rx="30.61" ry="18"/>
<text text-anchor="middle" x="92.98" y="-516.58" font-family="Times New Roman,serif" font-size="14.00">Łódź</text>
</g>
<!-- Wrocław&#45;&gt;Łódź -->
<g id="edge5" class="edge">
<title>Wrocław&#45;&gt;Łódź</title>
<path fill="none" stroke="black" d="M92.98,-575.7C92.98,-568.41 92.98,-559.73 92.98,-551.54"/>
<polygon fill="black" stroke="black" points="96.48,-551.62 92.98,-541.62 89.48,-551.62 96.48,-551.62"/>
</g>
<!-- Lublin -->
<g id="node7" class="node">
<title>Lublin</title>
<ellipse fill="none" stroke="black" cx="92.98" cy="-450" rx="34.1" ry="18"/>
<text text-anchor="middle" x="92.98" y="-444.57" font-family="Times New Roman,serif" font-size="14.00">Lublin</text>
</g>
<!-- Łódź&#45;&gt;Lublin -->
<g id="edge6" class="edge">
<title>Łódź&#45;&gt;Lublin</title>
<path fill="none" stroke="black" d="M92.98,-503.7C92.98,-496.41 92.98,-487.73 92.98,-479.54"/>
<polygon fill="black" stroke="black" points="96.48,-479.62 92.98,-469.62 89.48,-479.62 96.48,-479.62"/>
</g>
<!-- Białystok -->
<g id="node8" class="node">
<title>Białystok</title>
<ellipse fill="none" stroke="black" cx="92.98" cy="-378" rx="45.08" ry="18"/>
<text text-anchor="middle" x="92.98" y="-372.57" font-family="Times New Roman,serif" font-size="14.00">Białystok</text>
</g>
<!-- Lublin&#45;&gt;Białystok -->
<g id="edge7" class="edge">
<title>Lublin&#45;&gt;Białystok</title>
<path fill="none" stroke="black" d="M92.98,-431.7C92.98,-424.41 92.98,-415.73 92.98,-407.54"/>
<polygon fill="black" stroke="black" points="96.48,-407.62 92.98,-397.62 89.48,-407.62 96.48,-407.62"/>
</g>
<!-- Opole -->
<g id="node9" class="node">
<title>Opole</title>
<ellipse fill="none" stroke="black" cx="92.98" cy="-306" rx="33.6" ry="18"/>
<text text-anchor="middle" x="92.98" y="-300.57" font-family="Times New Roman,serif" font-size="14.00">Opole</text>
</g>
<!-- Białystok&#45;&gt;Opole -->
<g id="edge8" class="edge">
<title>Białystok&#45;&gt;Opole</title>
<path fill="none" stroke="black" d="M92.98,-359.7C92.98,-352.41 92.98,-343.73 92.98,-335.54"/>
<polygon fill="black" stroke="black" points="96.48,-335.62 92.98,-325.62 89.48,-335.62 96.48,-335.62"/>
</g>
<!-- Kraków -->
<g id="node10" class="node">
<title>Kraków</title>
<ellipse fill="none" stroke="black" cx="92.98" cy="-234" rx="40.09" ry="18"/>
<text text-anchor="middle" x="92.98" y="-228.57" font-family="Times New Roman,serif" font-size="14.00">Kraków</text>
</g>
<!-- Opole&#45;&gt;Kraków -->
<g id="edge9" class="edge">
<title>Opole&#45;&gt;Kraków</title>
<path fill="none" stroke="black" d="M92.98,-287.7C92.98,-280.41 92.98,-271.73 92.98,-263.54"/>
<polygon fill="black" stroke="black" points="96.48,-263.62 92.98,-253.62 89.48,-263.62 96.48,-263.62"/>
</g>
<!-- Katowice -->
<g id="node11" class="node">
<title>Katowice</title>
<ellipse fill="none" stroke="black" cx="92.98" cy="-162" rx="45.57" ry="18"/>
<text text-anchor="middle" x="92.98" y="-156.57" font-family="Times New Roman,serif" font-size="14.00">Katowice</text>
</g>
<!-- Kraków&#45;&gt;Katowice -->
<g id="edge10" class="edge">
<title>Kraków&#45;&gt;Katowice</title>
<path fill="none" stroke="black" d="M92.98,-215.7C92.98,-208.41 92.98,-199.73 92.98,-191.54"/>
<polygon fill="black" stroke="black" points="96.48,-191.62 92.98,-181.62 89.48,-191.62 96.48,-191.62"/>
</g>
<!-- Kielce -->
<g id="node12" class="node">
<title>Kielce</title>
<ellipse fill="none" stroke="black" cx="92.98" cy="-90" rx="33.6" ry="18"/>
<text text-anchor="middle" x="92.98" y="-84.58" font-family="Times New Roman,serif" font-size="14.00">Kielce</text>
</g>
<!-- Katowice&#45;&gt;Kielce -->
<g id="edge11" class="edge">
<title>Katowice&#45;&gt;Kielce</title>
<path fill="none" stroke="black" d="M92.98,-143.7C92.98,-136.41 92.98,-127.73 92.98,-119.54"/>
<polygon fill="black" stroke="black" points="96.48,-119.62 92.98,-109.62 89.48,-119.62 96.48,-119.62"/>
</g>
<!-- Rzeszów -->
<g id="node13" class="node">
<title>Rzeszów</title>
<ellipse fill="none" stroke="black" cx="92.98" cy="-18" rx="44.58" ry="18"/>
<text text-anchor="middle" x="92.98" y="-12.57" font-family="Times New Roman,serif" font-size="14.00">Rzeszów</text>
</g>
<!-- Kielce&#45;&gt;Rzeszów -->
<g id="edge12" class="edge">
<title>Kielce&#45;&gt;Rzeszów</title>
<path fill="none" stroke="black" d="M92.98,-71.7C92.98,-64.41 92.98,-55.73 92.98,-47.54"/>
<polygon fill="black" stroke="black" points="96.48,-47.62 92.98,-37.62 89.48,-47.62 96.48,-47.62"/>
</g>
</g>
</svg>
